<svg width="20" height="19" viewBox="0 0 20 19" fill="none" xmlns="http://www.w3.org/2000/svg">
<g clip-path="url(#clip0_124_89)">
<path d="M9.05537 5.55627H10.6416V7.04377H9.05537V5.55627ZM9.84846 12.9938C10.2847 12.9938 10.6416 12.6591 10.6416 12.25V9.27502C10.6416 8.86596 10.2847 8.53127 9.84846 8.53127C9.41226 8.53127 9.05537 8.86596 9.05537 9.27502V12.25C9.05537 12.6591 9.41226 12.9938 9.84846 12.9938ZM9.84846 1.83752C5.47056 1.83752 1.91748 5.16952 1.91748 9.27502C1.91748 13.3805 5.47056 16.7125 9.84846 16.7125C14.2264 16.7125 17.7794 13.3805 17.7794 9.27502C17.7794 5.16952 14.2264 1.83752 9.84846 1.83752ZM9.84846 15.225C6.3509 15.225 3.50368 12.555 3.50368 9.27502C3.50368 5.99509 6.3509 3.32502 9.84846 3.32502C13.346 3.32502 16.1933 5.99509 16.1933 9.27502C16.1933 12.555 13.346 15.225 9.84846 15.225Z" fill="#718096"/>
</g>
<defs>
<clipPath id="clip0_124_89">
<rect width="19.0344" height="17.85" fill="white" transform="translate(0.331299 0.349976)"/>
</clipPath>
</defs>
</svg>
