<svg width="20" height="19" viewBox="0 0 20 19" fill="none" xmlns="http://www.w3.org/2000/svg">
<g clip-path="url(#clip0_124_96)">
<path d="M15.5961 13.2094L14.573 12.25V8.53123C14.573 6.24791 13.2723 4.33648 11.0041 3.83073V3.32498C11.0041 2.70766 10.4727 2.20935 9.81443 2.20935C9.15616 2.20935 8.62478 2.70766 8.62478 3.32498V3.83073C6.34859 4.33648 5.05584 6.24048 5.05584 8.53123V12.25L4.03274 13.2094C3.53309 13.678 3.88205 14.4812 4.58791 14.4812H15.033C15.7468 14.4812 16.0958 13.678 15.5961 13.2094ZM12.9868 12.9937H6.64204V8.53123C6.64204 6.68673 7.83962 5.18435 9.81443 5.18435C11.7892 5.18435 12.9868 6.68673 12.9868 8.53123V12.9937ZM9.81443 16.7125C10.6868 16.7125 11.4006 16.0431 11.4006 15.225H8.22823C8.22823 16.0431 8.93409 16.7125 9.81443 16.7125Z" fill="#718096"/>
</g>
<defs>
<clipPath id="clip0_124_96">
<rect width="19.0344" height="17.85" fill="white" transform="translate(0.297241 0.349976)"/>
</clipPath>
</defs>
</svg>
